<svg width="70" height="64" viewBox="0 0 70 64" fill="none" xmlns="http://www.w3.org/2000/svg">
<path d="M6.72811 10.0503L10.3782 6.63314L10.3782 6.63314L6.72811 10.0503ZM39.5515 37.7946C41.4388 39.8104 41.3345 42.9746 39.3187 44.8618C37.3028 46.7491 34.1387 46.6448 32.2514 44.6289L39.5515 37.7946ZM61.345 9.74021L57.2722 6.83988L57.2722 6.83987L61.345 9.74021ZM55.2214 26.9592C53.6196 29.2085 50.4976 29.7335 48.2482 28.1317C45.9988 26.5299 45.4739 23.4079 47.0757 21.1585L55.2214 26.9592ZM58.9013 10H8.91814V7.62939e-06H58.9013V10ZM10.3782 6.63314L39.5515 37.7946L32.2514 44.6289L3.07806 13.4675L10.3782 6.63314ZM65.4179 12.6405L55.2214 26.9592L47.0757 21.1585L57.2722 6.83988L65.4179 12.6405ZM8.91814 10C10.6684 10 11.5743 7.91082 10.3782 6.63314L3.07806 13.4675C-1.70661 8.35678 1.91727 7.62939e-06 8.91814 7.62939e-06V10ZM58.9013 7.62939e-06C65.403 7.62939e-06 69.1893 7.34445 65.4179 12.6405L57.2722 6.83987C56.3293 8.1639 57.2759 10 58.9013 10V7.62939e-06Z" fill="url(#paint0_linear)"/>
<path d="M63.8041 53.9497L60.1541 57.3669L60.1541 57.3669L63.8041 53.9497ZM30.9807 26.2055C29.0934 24.1896 29.1977 21.0255 31.2136 19.1382C33.2294 17.251 36.3935 17.3552 38.2808 19.3711L30.9807 26.2055ZM9.18719 54.2598L13.26 57.1602L13.26 57.1602L9.18719 54.2598ZM15.3108 37.0409C16.9126 34.7915 20.0346 34.2665 22.284 35.8684C24.5334 37.4702 25.0583 40.5922 23.4565 42.8415L15.3108 37.0409ZM11.6309 54H61.6141V64H11.6309V54ZM60.1541 57.3669L30.9807 26.2055L38.2808 19.3711L67.4542 50.5325L60.1541 57.3669ZM5.11435 51.3595L15.3108 37.0409L23.4565 42.8415L13.26 57.1602L5.11435 51.3595ZM61.6141 54C59.8639 54 58.9579 56.0892 60.1541 57.3669L67.4542 50.5325C72.2388 55.6432 68.615 64 61.6141 64V54ZM11.6309 64C5.12918 64 1.34291 56.6556 5.11435 51.3595L13.26 57.1602C14.2029 55.8361 13.2563 54 11.6309 54V64Z" fill="url(#paint1_linear)"/>
<defs>
<linearGradient id="paint0_linear" x1="33.3603" y1="41.2118" x2="33.3603" y2="5.00001" gradientUnits="userSpaceOnUse">
<stop stop-color="#56CCF2"/>
<stop offset="1" stop-color="#2D9CDB"/>
</linearGradient>
<linearGradient id="paint1_linear" x1="37.1719" y1="22.7883" x2="37.1719" y2="59" gradientUnits="userSpaceOnUse">
<stop stop-color="#56CCF2"/>
<stop offset="1" stop-color="#2D9CDB"/>
</linearGradient>
</defs>
</svg>
